# xmcd
#
# Track frame offsets: 
#        150
#        18037
#        32494
#        50027
#        64985
#        82369
#        100238
#        119468
#        134666
#        163345
#
# Disc length: 2499 seconds
#
# Revision: 0
# Processed by: cddbd v1.5.2PL0 Copyright (c) Steve Scherf et al.
# Submitted via: ExactAudioCopyFreeDBPlugin 1.0
#
DISCID=9009c10a
DTITLE=Common - Nobody's Smiling
DYEAR=2014
DGENRE=Hip-Hop
TTITLE0=The Neighborhood
TTITLE1=No Fear
TTITLE2=Diamonds
TTITLE3=Blak Majik
TTITLE4=Speak My Piece
TTITLE5=Hustle Harder
TTITLE6=Nobody’s Smiling
TTITLE7=Real
TTITLE8=Kingdom
TTITLE9=Rewind That
EXTD=
EXTT0=
EXTT1=
EXTT2=
EXTT3=
EXTT4=
EXTT5=
EXTT6=
EXTT7=
EXTT8=
EXTT9=
PLAYORDER=
